<!--?xml version="1.0" standalone="no"?-->
              <svg id="sw-js-blob-svg" viewBox="0 0 100 100" xmlns="http://www.w3.org/2000/svg" version="1.1">
                    <defs> 
                        <linearGradient id="sw-gradient" x1="0" x2="1" y1="1" y2="0">
                            <stop id="stop1" stop-color="rgba(0, 0, 0, 1)" offset="0%"></stop>
                            <stop id="stop2" stop-color="rgba(0, 0, 0, 1)" offset="100%"></stop>
                        </linearGradient>
                    </defs>
                <path fill="url(#sw-gradient)" d="M19.8,-21C25.1,-19.1,28.4,-12.4,27.1,-6.8C25.7,-1.2,19.5,3.3,15.1,6.6C10.6,9.9,7.9,12,3.8,15.8C-0.3,19.6,-5.7,25.1,-8.9,24.1C-12.1,23.1,-13,15.6,-13.4,10.1C-13.8,4.6,-13.7,1.1,-14.5,-4C-15.3,-9,-17,-15.7,-14.8,-18.1C-12.5,-20.5,-6.2,-18.7,0.5,-19.3C7.2,-19.9,14.5,-22.9,19.8,-21Z" width="100%" height="100%" transform="translate(50 50)" stroke-width="0" style="transition: all 0.3s ease 0s;" stroke="url(#sw-gradient)"></path>
              </svg>